<mxfile host="app.diagrams.net" agent="Mozilla/5.0 (X11; Linux x86_64) AppleWebKit/537.36 (KHTML, like Gecko) Chrome/135.0.0.0 Safari/537.36" version="26.2.14">
  <diagram name="Page-1" id="t_ZjzlIveFX3uH3_dq2D">
    <mxGraphModel dx="1507" dy="859" grid="0" gridSize="10" guides="1" tooltips="1" connect="1" arrows="1" fold="1" page="1" pageScale="1" pageWidth="1100" pageHeight="850" math="0" shadow="0">
      <root>
        <mxCell id="0" />
        <mxCell id="1" parent="0" />
        <mxCell id="buDMk4SMQGIEA38cGcn8-2" value="users" style="shape=table;startSize=30;container=1;collapsible=1;childLayout=tableLayout;fixedRows=1;rowLines=0;fontStyle=1;align=center;resizeLast=1;html=1;" parent="1" vertex="1">
          <mxGeometry x="473" y="371.5" width="180" height="150" as="geometry" />
        </mxCell>
        <mxCell id="buDMk4SMQGIEA38cGcn8-3" value="" style="shape=tableRow;horizontal=0;startSize=0;swimlaneHead=0;swimlaneBody=0;fillColor=none;collapsible=0;dropTarget=0;points=[[0,0.5],[1,0.5]];portConstraint=eastwest;top=0;left=0;right=0;bottom=1;" parent="buDMk4SMQGIEA38cGcn8-2" vertex="1">
          <mxGeometry y="30" width="180" height="30" as="geometry" />
        </mxCell>
        <mxCell id="buDMk4SMQGIEA38cGcn8-4" value="PK" style="shape=partialRectangle;connectable=0;fillColor=none;top=0;left=0;bottom=0;right=0;fontStyle=1;overflow=hidden;whiteSpace=wrap;html=1;" parent="buDMk4SMQGIEA38cGcn8-3" vertex="1">
          <mxGeometry width="30" height="30" as="geometry">
            <mxRectangle width="30" height="30" as="alternateBounds" />
          </mxGeometry>
        </mxCell>
        <mxCell id="buDMk4SMQGIEA38cGcn8-5" value="id" style="shape=partialRectangle;connectable=0;fillColor=none;top=0;left=0;bottom=0;right=0;align=left;spacingLeft=6;fontStyle=5;overflow=hidden;whiteSpace=wrap;html=1;" parent="buDMk4SMQGIEA38cGcn8-3" vertex="1">
          <mxGeometry x="30" width="150" height="30" as="geometry">
            <mxRectangle width="150" height="30" as="alternateBounds" />
          </mxGeometry>
        </mxCell>
        <mxCell id="buDMk4SMQGIEA38cGcn8-6" value="" style="shape=tableRow;horizontal=0;startSize=0;swimlaneHead=0;swimlaneBody=0;fillColor=none;collapsible=0;dropTarget=0;points=[[0,0.5],[1,0.5]];portConstraint=eastwest;top=0;left=0;right=0;bottom=0;" parent="buDMk4SMQGIEA38cGcn8-2" vertex="1">
          <mxGeometry y="60" width="180" height="30" as="geometry" />
        </mxCell>
        <mxCell id="buDMk4SMQGIEA38cGcn8-7" value="UQ" style="shape=partialRectangle;connectable=0;fillColor=none;top=0;left=0;bottom=0;right=0;editable=1;overflow=hidden;whiteSpace=wrap;html=1;" parent="buDMk4SMQGIEA38cGcn8-6" vertex="1">
          <mxGeometry width="30" height="30" as="geometry">
            <mxRectangle width="30" height="30" as="alternateBounds" />
          </mxGeometry>
        </mxCell>
        <mxCell id="buDMk4SMQGIEA38cGcn8-8" value="email" style="shape=partialRectangle;connectable=0;fillColor=none;top=0;left=0;bottom=0;right=0;align=left;spacingLeft=6;overflow=hidden;whiteSpace=wrap;html=1;" parent="buDMk4SMQGIEA38cGcn8-6" vertex="1">
          <mxGeometry x="30" width="150" height="30" as="geometry">
            <mxRectangle width="150" height="30" as="alternateBounds" />
          </mxGeometry>
        </mxCell>
        <mxCell id="buDMk4SMQGIEA38cGcn8-9" value="" style="shape=tableRow;horizontal=0;startSize=0;swimlaneHead=0;swimlaneBody=0;fillColor=none;collapsible=0;dropTarget=0;points=[[0,0.5],[1,0.5]];portConstraint=eastwest;top=0;left=0;right=0;bottom=0;" parent="buDMk4SMQGIEA38cGcn8-2" vertex="1">
          <mxGeometry y="90" width="180" height="30" as="geometry" />
        </mxCell>
        <mxCell id="buDMk4SMQGIEA38cGcn8-10" value="" style="shape=partialRectangle;connectable=0;fillColor=none;top=0;left=0;bottom=0;right=0;editable=1;overflow=hidden;whiteSpace=wrap;html=1;" parent="buDMk4SMQGIEA38cGcn8-9" vertex="1">
          <mxGeometry width="30" height="30" as="geometry">
            <mxRectangle width="30" height="30" as="alternateBounds" />
          </mxGeometry>
        </mxCell>
        <mxCell id="buDMk4SMQGIEA38cGcn8-11" value="name" style="shape=partialRectangle;connectable=0;fillColor=none;top=0;left=0;bottom=0;right=0;align=left;spacingLeft=6;overflow=hidden;whiteSpace=wrap;html=1;" parent="buDMk4SMQGIEA38cGcn8-9" vertex="1">
          <mxGeometry x="30" width="150" height="30" as="geometry">
            <mxRectangle width="150" height="30" as="alternateBounds" />
          </mxGeometry>
        </mxCell>
        <mxCell id="buDMk4SMQGIEA38cGcn8-12" value="" style="shape=tableRow;horizontal=0;startSize=0;swimlaneHead=0;swimlaneBody=0;fillColor=none;collapsible=0;dropTarget=0;points=[[0,0.5],[1,0.5]];portConstraint=eastwest;top=0;left=0;right=0;bottom=0;" parent="buDMk4SMQGIEA38cGcn8-2" vertex="1">
          <mxGeometry y="120" width="180" height="30" as="geometry" />
        </mxCell>
        <mxCell id="buDMk4SMQGIEA38cGcn8-13" value="" style="shape=partialRectangle;connectable=0;fillColor=none;top=0;left=0;bottom=0;right=0;editable=1;overflow=hidden;whiteSpace=wrap;html=1;" parent="buDMk4SMQGIEA38cGcn8-12" vertex="1">
          <mxGeometry width="30" height="30" as="geometry">
            <mxRectangle width="30" height="30" as="alternateBounds" />
          </mxGeometry>
        </mxCell>
        <mxCell id="buDMk4SMQGIEA38cGcn8-14" value="password" style="shape=partialRectangle;connectable=0;fillColor=none;top=0;left=0;bottom=0;right=0;align=left;spacingLeft=6;overflow=hidden;whiteSpace=wrap;html=1;" parent="buDMk4SMQGIEA38cGcn8-12" vertex="1">
          <mxGeometry x="30" width="150" height="30" as="geometry">
            <mxRectangle width="150" height="30" as="alternateBounds" />
          </mxGeometry>
        </mxCell>
        <mxCell id="buDMk4SMQGIEA38cGcn8-15" value="profiles" style="shape=table;startSize=30;container=1;collapsible=1;childLayout=tableLayout;fixedRows=1;rowLines=0;fontStyle=1;align=center;resizeLast=1;html=1;" parent="1" vertex="1">
          <mxGeometry x="825" y="341" width="180.1788085937501" height="150" as="geometry" />
        </mxCell>
        <mxCell id="buDMk4SMQGIEA38cGcn8-16" value="" style="shape=tableRow;horizontal=0;startSize=0;swimlaneHead=0;swimlaneBody=0;fillColor=none;collapsible=0;dropTarget=0;points=[[0,0.5],[1,0.5]];portConstraint=eastwest;top=0;left=0;right=0;bottom=1;" parent="buDMk4SMQGIEA38cGcn8-15" vertex="1">
          <mxGeometry y="30" width="180.1788085937501" height="30" as="geometry" />
        </mxCell>
        <mxCell id="buDMk4SMQGIEA38cGcn8-17" value="PK" style="shape=partialRectangle;connectable=0;fillColor=none;top=0;left=0;bottom=0;right=0;fontStyle=1;overflow=hidden;whiteSpace=wrap;html=1;" parent="buDMk4SMQGIEA38cGcn8-16" vertex="1">
          <mxGeometry width="41.7366311961207" height="30" as="geometry">
            <mxRectangle width="41.7366311961207" height="30" as="alternateBounds" />
          </mxGeometry>
        </mxCell>
        <mxCell id="buDMk4SMQGIEA38cGcn8-18" value="id" style="shape=partialRectangle;connectable=0;fillColor=none;top=0;left=0;bottom=0;right=0;align=left;spacingLeft=6;fontStyle=5;overflow=hidden;whiteSpace=wrap;html=1;" parent="buDMk4SMQGIEA38cGcn8-16" vertex="1">
          <mxGeometry x="41.7366311961207" width="138.4421773976294" height="30" as="geometry">
            <mxRectangle width="138.4421773976294" height="30" as="alternateBounds" />
          </mxGeometry>
        </mxCell>
        <mxCell id="buDMk4SMQGIEA38cGcn8-19" value="" style="shape=tableRow;horizontal=0;startSize=0;swimlaneHead=0;swimlaneBody=0;fillColor=none;collapsible=0;dropTarget=0;points=[[0,0.5],[1,0.5]];portConstraint=eastwest;top=0;left=0;right=0;bottom=0;" parent="buDMk4SMQGIEA38cGcn8-15" vertex="1">
          <mxGeometry y="60" width="180.1788085937501" height="30" as="geometry" />
        </mxCell>
        <mxCell id="buDMk4SMQGIEA38cGcn8-20" value="FK" style="shape=partialRectangle;connectable=0;fillColor=none;top=0;left=0;bottom=0;right=0;editable=1;overflow=hidden;whiteSpace=wrap;html=1;" parent="buDMk4SMQGIEA38cGcn8-19" vertex="1">
          <mxGeometry width="41.7366311961207" height="30" as="geometry">
            <mxRectangle width="41.7366311961207" height="30" as="alternateBounds" />
          </mxGeometry>
        </mxCell>
        <mxCell id="buDMk4SMQGIEA38cGcn8-21" value="user_id" style="shape=partialRectangle;connectable=0;fillColor=none;top=0;left=0;bottom=0;right=0;align=left;spacingLeft=6;overflow=hidden;whiteSpace=wrap;html=1;" parent="buDMk4SMQGIEA38cGcn8-19" vertex="1">
          <mxGeometry x="41.7366311961207" width="138.4421773976294" height="30" as="geometry">
            <mxRectangle width="138.4421773976294" height="30" as="alternateBounds" />
          </mxGeometry>
        </mxCell>
        <mxCell id="buDMk4SMQGIEA38cGcn8-29" value="" style="shape=tableRow;horizontal=0;startSize=0;swimlaneHead=0;swimlaneBody=0;fillColor=none;collapsible=0;dropTarget=0;points=[[0,0.5],[1,0.5]];portConstraint=eastwest;top=0;left=0;right=0;bottom=0;" parent="buDMk4SMQGIEA38cGcn8-15" vertex="1">
          <mxGeometry y="90" width="180.1788085937501" height="30" as="geometry" />
        </mxCell>
        <mxCell id="buDMk4SMQGIEA38cGcn8-30" value="UQ" style="shape=partialRectangle;connectable=0;fillColor=none;top=0;left=0;bottom=0;right=0;editable=1;overflow=hidden;whiteSpace=wrap;html=1;" parent="buDMk4SMQGIEA38cGcn8-29" vertex="1">
          <mxGeometry width="41.7366311961207" height="30" as="geometry">
            <mxRectangle width="41.7366311961207" height="30" as="alternateBounds" />
          </mxGeometry>
        </mxCell>
        <mxCell id="buDMk4SMQGIEA38cGcn8-31" value="username" style="shape=partialRectangle;connectable=0;fillColor=none;top=0;left=0;bottom=0;right=0;align=left;spacingLeft=6;overflow=hidden;whiteSpace=wrap;html=1;" parent="buDMk4SMQGIEA38cGcn8-29" vertex="1">
          <mxGeometry x="41.7366311961207" width="138.4421773976294" height="30" as="geometry">
            <mxRectangle width="138.4421773976294" height="30" as="alternateBounds" />
          </mxGeometry>
        </mxCell>
        <mxCell id="buDMk4SMQGIEA38cGcn8-22" value="" style="shape=tableRow;horizontal=0;startSize=0;swimlaneHead=0;swimlaneBody=0;fillColor=none;collapsible=0;dropTarget=0;points=[[0,0.5],[1,0.5]];portConstraint=eastwest;top=0;left=0;right=0;bottom=0;" parent="buDMk4SMQGIEA38cGcn8-15" vertex="1">
          <mxGeometry y="120" width="180.1788085937501" height="30" as="geometry" />
        </mxCell>
        <mxCell id="buDMk4SMQGIEA38cGcn8-23" value="NULL" style="shape=partialRectangle;connectable=0;fillColor=none;top=0;left=0;bottom=0;right=0;editable=1;overflow=hidden;whiteSpace=wrap;html=1;" parent="buDMk4SMQGIEA38cGcn8-22" vertex="1">
          <mxGeometry width="41.7366311961207" height="30" as="geometry">
            <mxRectangle width="41.7366311961207" height="30" as="alternateBounds" />
          </mxGeometry>
        </mxCell>
        <mxCell id="buDMk4SMQGIEA38cGcn8-24" value="picture" style="shape=partialRectangle;connectable=0;fillColor=none;top=0;left=0;bottom=0;right=0;align=left;spacingLeft=6;overflow=hidden;whiteSpace=wrap;html=1;" parent="buDMk4SMQGIEA38cGcn8-22" vertex="1">
          <mxGeometry x="41.7366311961207" width="138.4421773976294" height="30" as="geometry">
            <mxRectangle width="138.4421773976294" height="30" as="alternateBounds" />
          </mxGeometry>
        </mxCell>
        <mxCell id="buDMk4SMQGIEA38cGcn8-28" value="" style="fontSize=12;html=1;endArrow=ERmandOne;startArrow=ERmandOne;rounded=0;entryX=0;entryY=0.5;entryDx=0;entryDy=0;exitX=1;exitY=0.5;exitDx=0;exitDy=0;" parent="1" source="buDMk4SMQGIEA38cGcn8-3" target="buDMk4SMQGIEA38cGcn8-19" edge="1">
          <mxGeometry width="100" height="100" relative="1" as="geometry">
            <mxPoint x="207" y="553.5" as="sourcePoint" />
            <mxPoint x="307" y="453.5" as="targetPoint" />
          </mxGeometry>
        </mxCell>
        <mxCell id="buDMk4SMQGIEA38cGcn8-32" value="posts" style="shape=table;startSize=30;container=1;collapsible=1;childLayout=tableLayout;fixedRows=1;rowLines=0;fontStyle=1;align=center;resizeLast=1;html=1;" parent="1" vertex="1">
          <mxGeometry x="1182" y="311.5" width="180" height="150" as="geometry" />
        </mxCell>
        <mxCell id="buDMk4SMQGIEA38cGcn8-33" value="" style="shape=tableRow;horizontal=0;startSize=0;swimlaneHead=0;swimlaneBody=0;fillColor=none;collapsible=0;dropTarget=0;points=[[0,0.5],[1,0.5]];portConstraint=eastwest;top=0;left=0;right=0;bottom=1;" parent="buDMk4SMQGIEA38cGcn8-32" vertex="1">
          <mxGeometry y="30" width="180" height="30" as="geometry" />
        </mxCell>
        <mxCell id="buDMk4SMQGIEA38cGcn8-34" value="PK" style="shape=partialRectangle;connectable=0;fillColor=none;top=0;left=0;bottom=0;right=0;fontStyle=1;overflow=hidden;whiteSpace=wrap;html=1;" parent="buDMk4SMQGIEA38cGcn8-33" vertex="1">
          <mxGeometry width="36.63947164601291" height="30" as="geometry">
            <mxRectangle width="36.63947164601291" height="30" as="alternateBounds" />
          </mxGeometry>
        </mxCell>
        <mxCell id="buDMk4SMQGIEA38cGcn8-35" value="id" style="shape=partialRectangle;connectable=0;fillColor=none;top=0;left=0;bottom=0;right=0;align=left;spacingLeft=6;fontStyle=5;overflow=hidden;whiteSpace=wrap;html=1;" parent="buDMk4SMQGIEA38cGcn8-33" vertex="1">
          <mxGeometry x="36.63947164601291" width="143.3605283539871" height="30" as="geometry">
            <mxRectangle width="143.3605283539871" height="30" as="alternateBounds" />
          </mxGeometry>
        </mxCell>
        <mxCell id="buDMk4SMQGIEA38cGcn8-36" value="" style="shape=tableRow;horizontal=0;startSize=0;swimlaneHead=0;swimlaneBody=0;fillColor=none;collapsible=0;dropTarget=0;points=[[0,0.5],[1,0.5]];portConstraint=eastwest;top=0;left=0;right=0;bottom=0;" parent="buDMk4SMQGIEA38cGcn8-32" vertex="1">
          <mxGeometry y="60" width="180" height="30" as="geometry" />
        </mxCell>
        <mxCell id="buDMk4SMQGIEA38cGcn8-37" value="FK" style="shape=partialRectangle;connectable=0;fillColor=none;top=0;left=0;bottom=0;right=0;editable=1;overflow=hidden;whiteSpace=wrap;html=1;" parent="buDMk4SMQGIEA38cGcn8-36" vertex="1">
          <mxGeometry width="36.63947164601291" height="30" as="geometry">
            <mxRectangle width="36.63947164601291" height="30" as="alternateBounds" />
          </mxGeometry>
        </mxCell>
        <mxCell id="buDMk4SMQGIEA38cGcn8-38" value="profile_id" style="shape=partialRectangle;connectable=0;fillColor=none;top=0;left=0;bottom=0;right=0;align=left;spacingLeft=6;overflow=hidden;whiteSpace=wrap;html=1;" parent="buDMk4SMQGIEA38cGcn8-36" vertex="1">
          <mxGeometry x="36.63947164601291" width="143.3605283539871" height="30" as="geometry">
            <mxRectangle width="143.3605283539871" height="30" as="alternateBounds" />
          </mxGeometry>
        </mxCell>
        <mxCell id="buDMk4SMQGIEA38cGcn8-59" value="" style="shape=tableRow;horizontal=0;startSize=0;swimlaneHead=0;swimlaneBody=0;fillColor=none;collapsible=0;dropTarget=0;points=[[0,0.5],[1,0.5]];portConstraint=eastwest;top=0;left=0;right=0;bottom=0;" parent="buDMk4SMQGIEA38cGcn8-32" vertex="1">
          <mxGeometry y="90" width="180" height="30" as="geometry" />
        </mxCell>
        <mxCell id="buDMk4SMQGIEA38cGcn8-60" value="NULL" style="shape=partialRectangle;connectable=0;fillColor=none;top=0;left=0;bottom=0;right=0;editable=1;overflow=hidden;whiteSpace=wrap;html=1;" parent="buDMk4SMQGIEA38cGcn8-59" vertex="1">
          <mxGeometry width="36.63947164601291" height="30" as="geometry">
            <mxRectangle width="36.63947164601291" height="30" as="alternateBounds" />
          </mxGeometry>
        </mxCell>
        <mxCell id="buDMk4SMQGIEA38cGcn8-61" value="description" style="shape=partialRectangle;connectable=0;fillColor=none;top=0;left=0;bottom=0;right=0;align=left;spacingLeft=6;overflow=hidden;whiteSpace=wrap;html=1;" parent="buDMk4SMQGIEA38cGcn8-59" vertex="1">
          <mxGeometry x="36.63947164601291" width="143.3605283539871" height="30" as="geometry">
            <mxRectangle width="143.3605283539871" height="30" as="alternateBounds" />
          </mxGeometry>
        </mxCell>
        <mxCell id="buDMk4SMQGIEA38cGcn8-39" value="" style="shape=tableRow;horizontal=0;startSize=0;swimlaneHead=0;swimlaneBody=0;fillColor=none;collapsible=0;dropTarget=0;points=[[0,0.5],[1,0.5]];portConstraint=eastwest;top=0;left=0;right=0;bottom=0;" parent="buDMk4SMQGIEA38cGcn8-32" vertex="1">
          <mxGeometry y="120" width="180" height="30" as="geometry" />
        </mxCell>
        <mxCell id="buDMk4SMQGIEA38cGcn8-40" value="" style="shape=partialRectangle;connectable=0;fillColor=none;top=0;left=0;bottom=0;right=0;editable=1;overflow=hidden;whiteSpace=wrap;html=1;" parent="buDMk4SMQGIEA38cGcn8-39" vertex="1">
          <mxGeometry width="36.63947164601291" height="30" as="geometry">
            <mxRectangle width="36.63947164601291" height="30" as="alternateBounds" />
          </mxGeometry>
        </mxCell>
        <mxCell id="buDMk4SMQGIEA38cGcn8-41" value="date" style="shape=partialRectangle;connectable=0;fillColor=none;top=0;left=0;bottom=0;right=0;align=left;spacingLeft=6;overflow=hidden;whiteSpace=wrap;html=1;" parent="buDMk4SMQGIEA38cGcn8-39" vertex="1">
          <mxGeometry x="36.63947164601291" width="143.3605283539871" height="30" as="geometry">
            <mxRectangle width="143.3605283539871" height="30" as="alternateBounds" />
          </mxGeometry>
        </mxCell>
        <mxCell id="buDMk4SMQGIEA38cGcn8-45" value="post_image" style="shape=table;startSize=30;container=1;collapsible=1;childLayout=tableLayout;fixedRows=1;rowLines=0;fontStyle=1;align=center;resizeLast=1;html=1;" parent="1" vertex="1">
          <mxGeometry x="1504" y="303.5" width="180" height="90" as="geometry" />
        </mxCell>
        <mxCell id="buDMk4SMQGIEA38cGcn8-49" value="" style="shape=tableRow;horizontal=0;startSize=0;swimlaneHead=0;swimlaneBody=0;fillColor=none;collapsible=0;dropTarget=0;points=[[0,0.5],[1,0.5]];portConstraint=eastwest;top=0;left=0;right=0;bottom=0;" parent="buDMk4SMQGIEA38cGcn8-45" vertex="1">
          <mxGeometry y="30" width="180" height="30" as="geometry" />
        </mxCell>
        <mxCell id="buDMk4SMQGIEA38cGcn8-50" value="FK" style="shape=partialRectangle;connectable=0;fillColor=none;top=0;left=0;bottom=0;right=0;editable=1;overflow=hidden;whiteSpace=wrap;html=1;" parent="buDMk4SMQGIEA38cGcn8-49" vertex="1">
          <mxGeometry width="30" height="30" as="geometry">
            <mxRectangle width="30" height="30" as="alternateBounds" />
          </mxGeometry>
        </mxCell>
        <mxCell id="buDMk4SMQGIEA38cGcn8-51" value="post_id" style="shape=partialRectangle;connectable=0;fillColor=none;top=0;left=0;bottom=0;right=0;align=left;spacingLeft=6;overflow=hidden;whiteSpace=wrap;html=1;" parent="buDMk4SMQGIEA38cGcn8-49" vertex="1">
          <mxGeometry x="30" width="150" height="30" as="geometry">
            <mxRectangle width="150" height="30" as="alternateBounds" />
          </mxGeometry>
        </mxCell>
        <mxCell id="buDMk4SMQGIEA38cGcn8-52" value="" style="shape=tableRow;horizontal=0;startSize=0;swimlaneHead=0;swimlaneBody=0;fillColor=none;collapsible=0;dropTarget=0;points=[[0,0.5],[1,0.5]];portConstraint=eastwest;top=0;left=0;right=0;bottom=0;" parent="buDMk4SMQGIEA38cGcn8-45" vertex="1">
          <mxGeometry y="60" width="180" height="30" as="geometry" />
        </mxCell>
        <mxCell id="buDMk4SMQGIEA38cGcn8-53" value="" style="shape=partialRectangle;connectable=0;fillColor=none;top=0;left=0;bottom=0;right=0;editable=1;overflow=hidden;whiteSpace=wrap;html=1;" parent="buDMk4SMQGIEA38cGcn8-52" vertex="1">
          <mxGeometry width="30" height="30" as="geometry">
            <mxRectangle width="30" height="30" as="alternateBounds" />
          </mxGeometry>
        </mxCell>
        <mxCell id="buDMk4SMQGIEA38cGcn8-54" value="url" style="shape=partialRectangle;connectable=0;fillColor=none;top=0;left=0;bottom=0;right=0;align=left;spacingLeft=6;overflow=hidden;whiteSpace=wrap;html=1;" parent="buDMk4SMQGIEA38cGcn8-52" vertex="1">
          <mxGeometry x="30" width="150" height="30" as="geometry">
            <mxRectangle width="150" height="30" as="alternateBounds" />
          </mxGeometry>
        </mxCell>
        <mxCell id="buDMk4SMQGIEA38cGcn8-58" value="" style="fontSize=12;html=1;endArrow=ERzeroToMany;startArrow=ERmandOne;rounded=0;entryX=0;entryY=0.5;entryDx=0;entryDy=0;exitX=0.999;exitY=0.247;exitDx=0;exitDy=0;exitPerimeter=0;" parent="1" source="buDMk4SMQGIEA38cGcn8-33" target="buDMk4SMQGIEA38cGcn8-49" edge="1">
          <mxGeometry width="100" height="100" relative="1" as="geometry">
            <mxPoint x="631" y="534.5" as="sourcePoint" />
            <mxPoint x="731" y="434.5" as="targetPoint" />
          </mxGeometry>
        </mxCell>
        <mxCell id="buDMk4SMQGIEA38cGcn8-62" value="" style="fontSize=12;html=1;endArrow=ERzeroToMany;startArrow=ERmandOne;rounded=0;exitX=1;exitY=0.5;exitDx=0;exitDy=0;" parent="1" source="buDMk4SMQGIEA38cGcn8-16" target="buDMk4SMQGIEA38cGcn8-36" edge="1">
          <mxGeometry width="100" height="100" relative="1" as="geometry">
            <mxPoint x="361" y="573.5" as="sourcePoint" />
            <mxPoint x="461" y="473.5" as="targetPoint" />
          </mxGeometry>
        </mxCell>
        <mxCell id="buDMk4SMQGIEA38cGcn8-65" value="comments" style="shape=table;startSize=30;container=1;collapsible=1;childLayout=tableLayout;fixedRows=1;rowLines=0;fontStyle=1;align=center;resizeLast=1;html=1;" parent="1" vertex="1">
          <mxGeometry x="1144" y="542" width="180" height="150" as="geometry" />
        </mxCell>
        <mxCell id="buDMk4SMQGIEA38cGcn8-66" value="" style="shape=tableRow;horizontal=0;startSize=0;swimlaneHead=0;swimlaneBody=0;fillColor=none;collapsible=0;dropTarget=0;points=[[0,0.5],[1,0.5]];portConstraint=eastwest;top=0;left=0;right=0;bottom=0;" parent="buDMk4SMQGIEA38cGcn8-65" vertex="1">
          <mxGeometry y="30" width="180" height="30" as="geometry" />
        </mxCell>
        <mxCell id="buDMk4SMQGIEA38cGcn8-67" value="FK" style="shape=partialRectangle;connectable=0;fillColor=none;top=0;left=0;bottom=0;right=0;editable=1;overflow=hidden;whiteSpace=wrap;html=1;" parent="buDMk4SMQGIEA38cGcn8-66" vertex="1">
          <mxGeometry width="30" height="30" as="geometry">
            <mxRectangle width="30" height="30" as="alternateBounds" />
          </mxGeometry>
        </mxCell>
        <mxCell id="buDMk4SMQGIEA38cGcn8-68" value="profile_id" style="shape=partialRectangle;connectable=0;fillColor=none;top=0;left=0;bottom=0;right=0;align=left;spacingLeft=6;overflow=hidden;whiteSpace=wrap;html=1;" parent="buDMk4SMQGIEA38cGcn8-66" vertex="1">
          <mxGeometry x="30" width="150" height="30" as="geometry">
            <mxRectangle width="150" height="30" as="alternateBounds" />
          </mxGeometry>
        </mxCell>
        <mxCell id="buDMk4SMQGIEA38cGcn8-69" value="" style="shape=tableRow;horizontal=0;startSize=0;swimlaneHead=0;swimlaneBody=0;fillColor=none;collapsible=0;dropTarget=0;points=[[0,0.5],[1,0.5]];portConstraint=eastwest;top=0;left=0;right=0;bottom=0;" parent="buDMk4SMQGIEA38cGcn8-65" vertex="1">
          <mxGeometry y="60" width="180" height="30" as="geometry" />
        </mxCell>
        <mxCell id="buDMk4SMQGIEA38cGcn8-70" value="FK" style="shape=partialRectangle;connectable=0;fillColor=none;top=0;left=0;bottom=0;right=0;editable=1;overflow=hidden;whiteSpace=wrap;html=1;" parent="buDMk4SMQGIEA38cGcn8-69" vertex="1">
          <mxGeometry width="30" height="30" as="geometry">
            <mxRectangle width="30" height="30" as="alternateBounds" />
          </mxGeometry>
        </mxCell>
        <mxCell id="buDMk4SMQGIEA38cGcn8-71" value="post_id" style="shape=partialRectangle;connectable=0;fillColor=none;top=0;left=0;bottom=0;right=0;align=left;spacingLeft=6;overflow=hidden;whiteSpace=wrap;html=1;" parent="buDMk4SMQGIEA38cGcn8-69" vertex="1">
          <mxGeometry x="30" width="150" height="30" as="geometry">
            <mxRectangle width="150" height="30" as="alternateBounds" />
          </mxGeometry>
        </mxCell>
        <mxCell id="buDMk4SMQGIEA38cGcn8-72" value="" style="shape=tableRow;horizontal=0;startSize=0;swimlaneHead=0;swimlaneBody=0;fillColor=none;collapsible=0;dropTarget=0;points=[[0,0.5],[1,0.5]];portConstraint=eastwest;top=0;left=0;right=0;bottom=0;" parent="buDMk4SMQGIEA38cGcn8-65" vertex="1">
          <mxGeometry y="90" width="180" height="30" as="geometry" />
        </mxCell>
        <mxCell id="buDMk4SMQGIEA38cGcn8-73" value="" style="shape=partialRectangle;connectable=0;fillColor=none;top=0;left=0;bottom=0;right=0;editable=1;overflow=hidden;whiteSpace=wrap;html=1;" parent="buDMk4SMQGIEA38cGcn8-72" vertex="1">
          <mxGeometry width="30" height="30" as="geometry">
            <mxRectangle width="30" height="30" as="alternateBounds" />
          </mxGeometry>
        </mxCell>
        <mxCell id="buDMk4SMQGIEA38cGcn8-74" value="content" style="shape=partialRectangle;connectable=0;fillColor=none;top=0;left=0;bottom=0;right=0;align=left;spacingLeft=6;overflow=hidden;whiteSpace=wrap;html=1;" parent="buDMk4SMQGIEA38cGcn8-72" vertex="1">
          <mxGeometry x="30" width="150" height="30" as="geometry">
            <mxRectangle width="150" height="30" as="alternateBounds" />
          </mxGeometry>
        </mxCell>
        <mxCell id="buDMk4SMQGIEA38cGcn8-75" value="" style="shape=tableRow;horizontal=0;startSize=0;swimlaneHead=0;swimlaneBody=0;fillColor=none;collapsible=0;dropTarget=0;points=[[0,0.5],[1,0.5]];portConstraint=eastwest;top=0;left=0;right=0;bottom=0;" parent="buDMk4SMQGIEA38cGcn8-65" vertex="1">
          <mxGeometry y="120" width="180" height="30" as="geometry" />
        </mxCell>
        <mxCell id="buDMk4SMQGIEA38cGcn8-76" value="" style="shape=partialRectangle;connectable=0;fillColor=none;top=0;left=0;bottom=0;right=0;editable=1;overflow=hidden;whiteSpace=wrap;html=1;" parent="buDMk4SMQGIEA38cGcn8-75" vertex="1">
          <mxGeometry width="30" height="30" as="geometry">
            <mxRectangle width="30" height="30" as="alternateBounds" />
          </mxGeometry>
        </mxCell>
        <mxCell id="buDMk4SMQGIEA38cGcn8-77" value="date" style="shape=partialRectangle;connectable=0;fillColor=none;top=0;left=0;bottom=0;right=0;align=left;spacingLeft=6;overflow=hidden;whiteSpace=wrap;html=1;" parent="buDMk4SMQGIEA38cGcn8-75" vertex="1">
          <mxGeometry x="30" width="150" height="30" as="geometry">
            <mxRectangle width="150" height="30" as="alternateBounds" />
          </mxGeometry>
        </mxCell>
        <mxCell id="buDMk4SMQGIEA38cGcn8-78" value="" style="edgeStyle=entityRelationEdgeStyle;fontSize=12;html=1;endArrow=ERzeroToMany;startArrow=ERmandOne;rounded=0;exitX=1.001;exitY=0.876;exitDx=0;exitDy=0;exitPerimeter=0;entryX=0;entryY=0.5;entryDx=0;entryDy=0;" parent="1" source="buDMk4SMQGIEA38cGcn8-16" target="buDMk4SMQGIEA38cGcn8-66" edge="1">
          <mxGeometry width="100" height="100" relative="1" as="geometry">
            <mxPoint x="1015" y="396" as="sourcePoint" />
            <mxPoint x="1109" y="272" as="targetPoint" />
          </mxGeometry>
        </mxCell>
        <mxCell id="buDMk4SMQGIEA38cGcn8-79" value="" style="edgeStyle=orthogonalEdgeStyle;fontSize=12;html=1;endArrow=ERzeroToMany;startArrow=ERmandOne;rounded=0;exitX=1;exitY=0.767;exitDx=0;exitDy=0;exitPerimeter=0;" parent="1" source="buDMk4SMQGIEA38cGcn8-33" target="buDMk4SMQGIEA38cGcn8-69" edge="1">
          <mxGeometry width="100" height="100" relative="1" as="geometry">
            <mxPoint x="1294" y="272" as="sourcePoint" />
            <mxPoint x="1109" y="541" as="targetPoint" />
            <Array as="points">
              <mxPoint x="1393" y="364" />
              <mxPoint x="1393" y="618" />
            </Array>
          </mxGeometry>
        </mxCell>
        <mxCell id="buDMk4SMQGIEA38cGcn8-94" value="follows" style="shape=table;startSize=30;container=1;collapsible=1;childLayout=tableLayout;fixedRows=1;rowLines=0;fontStyle=1;align=center;resizeLast=1;html=1;whiteSpace=wrap;" parent="1" vertex="1">
          <mxGeometry x="818" y="159" width="200.3991805366851" height="90" as="geometry" />
        </mxCell>
        <mxCell id="buDMk4SMQGIEA38cGcn8-95" value="" style="shape=tableRow;horizontal=0;startSize=0;swimlaneHead=0;swimlaneBody=0;fillColor=none;collapsible=0;dropTarget=0;points=[[0,0.5],[1,0.5]];portConstraint=eastwest;top=0;left=0;right=0;bottom=0;html=1;" parent="buDMk4SMQGIEA38cGcn8-94" vertex="1">
          <mxGeometry y="30" width="200.3991805366851" height="30" as="geometry" />
        </mxCell>
        <mxCell id="buDMk4SMQGIEA38cGcn8-96" value="PK,FK1" style="shape=partialRectangle;connectable=0;fillColor=none;top=0;left=0;bottom=0;right=0;fontStyle=1;overflow=hidden;html=1;whiteSpace=wrap;" parent="buDMk4SMQGIEA38cGcn8-95" vertex="1">
          <mxGeometry width="60" height="30" as="geometry">
            <mxRectangle width="60" height="30" as="alternateBounds" />
          </mxGeometry>
        </mxCell>
        <mxCell id="buDMk4SMQGIEA38cGcn8-97" value="profile_id" style="shape=partialRectangle;connectable=0;fillColor=none;top=0;left=0;bottom=0;right=0;align=left;spacingLeft=6;fontStyle=5;overflow=hidden;html=1;whiteSpace=wrap;" parent="buDMk4SMQGIEA38cGcn8-95" vertex="1">
          <mxGeometry x="60" width="140.3991805366851" height="30" as="geometry">
            <mxRectangle width="140.3991805366851" height="30" as="alternateBounds" />
          </mxGeometry>
        </mxCell>
        <mxCell id="buDMk4SMQGIEA38cGcn8-98" value="" style="shape=tableRow;horizontal=0;startSize=0;swimlaneHead=0;swimlaneBody=0;fillColor=none;collapsible=0;dropTarget=0;points=[[0,0.5],[1,0.5]];portConstraint=eastwest;top=0;left=0;right=0;bottom=1;html=1;" parent="buDMk4SMQGIEA38cGcn8-94" vertex="1">
          <mxGeometry y="60" width="200.3991805366851" height="30" as="geometry" />
        </mxCell>
        <mxCell id="buDMk4SMQGIEA38cGcn8-99" value="PK,FK2" style="shape=partialRectangle;connectable=0;fillColor=none;top=0;left=0;bottom=0;right=0;fontStyle=1;overflow=hidden;html=1;whiteSpace=wrap;" parent="buDMk4SMQGIEA38cGcn8-98" vertex="1">
          <mxGeometry width="60" height="30" as="geometry">
            <mxRectangle width="60" height="30" as="alternateBounds" />
          </mxGeometry>
        </mxCell>
        <mxCell id="buDMk4SMQGIEA38cGcn8-100" value="following_profile_id" style="shape=partialRectangle;connectable=0;fillColor=none;top=0;left=0;bottom=0;right=0;align=left;spacingLeft=6;fontStyle=5;overflow=hidden;html=1;whiteSpace=wrap;" parent="buDMk4SMQGIEA38cGcn8-98" vertex="1">
          <mxGeometry x="60" width="140.3991805366851" height="30" as="geometry">
            <mxRectangle width="140.3991805366851" height="30" as="alternateBounds" />
          </mxGeometry>
        </mxCell>
        <mxCell id="buDMk4SMQGIEA38cGcn8-101" value="" style="fontSize=12;html=1;endArrow=ERzeroToMany;startArrow=ERmandOne;rounded=0;exitX=0;exitY=0.5;exitDx=0;exitDy=0;entryX=0;entryY=0.5;entryDx=0;entryDy=0;edgeStyle=orthogonalEdgeStyle;" parent="1" source="buDMk4SMQGIEA38cGcn8-16" target="buDMk4SMQGIEA38cGcn8-95" edge="1">
          <mxGeometry width="100" height="100" relative="1" as="geometry">
            <mxPoint x="841" y="48.5" as="sourcePoint" />
            <mxPoint x="806" y="194.39" as="targetPoint" />
            <Array as="points">
              <mxPoint x="791" y="386.5" />
              <mxPoint x="791" y="204.5" />
            </Array>
          </mxGeometry>
        </mxCell>
        <mxCell id="buDMk4SMQGIEA38cGcn8-102" value="" style="fontSize=12;html=1;endArrow=ERzeroToMany;startArrow=ERmandOne;rounded=0;exitX=1;exitY=0.124;exitDx=0;exitDy=0;entryX=1;entryY=0.5;entryDx=0;entryDy=0;edgeStyle=orthogonalEdgeStyle;exitPerimeter=0;" parent="1" source="buDMk4SMQGIEA38cGcn8-16" target="buDMk4SMQGIEA38cGcn8-98" edge="1">
          <mxGeometry width="100" height="100" relative="1" as="geometry">
            <mxPoint x="835" y="396.5" as="sourcePoint" />
            <mxPoint x="826" y="214.5" as="targetPoint" />
            <Array as="points">
              <mxPoint x="1045" y="375" />
              <mxPoint x="1045" y="234" />
            </Array>
          </mxGeometry>
        </mxCell>
        <mxCell id="buDMk4SMQGIEA38cGcn8-103" value="Update: CASCADE&lt;div&gt;Delete: CASCADE&lt;/div&gt;" style="text;html=1;align=center;verticalAlign=middle;resizable=0;points=[];autosize=1;strokeColor=none;fillColor=none;" parent="1" vertex="1">
          <mxGeometry x="679" y="420.5" width="121" height="41" as="geometry" />
        </mxCell>
        <mxCell id="buDMk4SMQGIEA38cGcn8-105" value="Update: CASCADE&lt;div&gt;Delete: CASCADE&lt;/div&gt;" style="text;html=1;align=center;verticalAlign=middle;resizable=0;points=[];autosize=1;strokeColor=none;fillColor=none;" parent="1" vertex="1">
          <mxGeometry x="1051" y="341" width="121" height="41" as="geometry" />
        </mxCell>
        <mxCell id="buDMk4SMQGIEA38cGcn8-106" value="Update: CASCADE&lt;div&gt;Delete: CASCADE&lt;/div&gt;" style="text;html=1;align=center;verticalAlign=middle;resizable=0;points=[];autosize=1;strokeColor=none;fillColor=none;" parent="1" vertex="1">
          <mxGeometry x="1373" y="306.5" width="121" height="41" as="geometry" />
        </mxCell>
        <mxCell id="buDMk4SMQGIEA38cGcn8-107" value="Update: CASCADE&lt;div&gt;Delete: CASCADE&lt;/div&gt;" style="text;html=1;align=center;verticalAlign=middle;resizable=0;points=[];autosize=1;strokeColor=none;fillColor=none;" parent="1" vertex="1">
          <mxGeometry x="965" y="512.5" width="121" height="41" as="geometry" />
        </mxCell>
        <mxCell id="buDMk4SMQGIEA38cGcn8-108" value="Update: CASCADE&lt;div&gt;Delete: CASCADE&lt;/div&gt;" style="text;html=1;align=center;verticalAlign=middle;resizable=0;points=[];autosize=1;strokeColor=none;fillColor=none;" parent="1" vertex="1">
          <mxGeometry x="1396" y="471.5" width="121" height="41" as="geometry" />
        </mxCell>
        <mxCell id="buDMk4SMQGIEA38cGcn8-109" value="Update: CASCADE&lt;div&gt;Delete: CASCADE&lt;/div&gt;" style="text;html=1;align=center;verticalAlign=middle;resizable=0;points=[];autosize=1;strokeColor=none;fillColor=none;" parent="1" vertex="1">
          <mxGeometry x="923" y="270.5" width="121" height="41" as="geometry" />
        </mxCell>
        <mxCell id="buDMk4SMQGIEA38cGcn8-110" value="Update: CASCADE&lt;div&gt;Delete: CASCADE&lt;/div&gt;" style="text;html=1;align=center;verticalAlign=middle;resizable=0;points=[];autosize=1;strokeColor=none;fillColor=none;" parent="1" vertex="1">
          <mxGeometry x="670" y="259.5" width="121" height="41" as="geometry" />
        </mxCell>
      </root>
    </mxGraphModel>
  </diagram>
</mxfile>
